<?xml version="1.0" encoding="utf-8"?>
<!-- Generator: Adobe Illustrator 16.0.3, SVG Export Plug-In . SVG Version: 6.00 Build 0)  -->
<!DOCTYPE svg PUBLIC "-//W3C//DTD SVG 1.1//EN" "http://www.w3.org/Graphics/SVG/1.1/DTD/svg11.dtd">
<svg version="1.1" id="Layer_1" xmlns="http://www.w3.org/2000/svg" xmlns:xlink="http://www.w3.org/1999/xlink" x="0px" y="0px"
	 width="100px" height="100px" viewBox="0 0 100 100" enable-background="new 0 0 100 100" xml:space="preserve">
<g>
	<path fill="#FFFFFF" d="M82.23,36.526c0,9.386-2.626,18.081-7.873,26.088c-5.816,8.878-13.403,14.994-22.76,18.352
		c-5.189,1.86-10.722,2.79-16.599,2.79c-9.296,0-17.797-2.489-25.503-7.467c1.199,0.15,2.533,0.226,4.002,0.226
		c7.708,0,14.589-2.367,20.646-7.107c-3.599-0.029-6.822-1.124-9.671-3.282c-2.849-2.16-4.798-4.903-5.848-8.23
		c1.139,0.179,2.309,0.27,3.508,0.27c1.199,0,2.519-0.193,3.958-0.585c-3.839-0.779-7.018-2.683-9.537-5.714
		c-2.518-3.028-3.778-6.551-3.778-10.57v-0.227c2.34,1.29,4.843,1.996,7.512,2.114c-2.249-1.5-4.048-3.463-5.397-5.893
		c-1.32-2.429-1.979-5.113-1.979-8.052c0-2.938,0.749-5.682,2.25-8.231c4.138,5.098,9.176,9.176,15.113,12.235
		c5.937,3.059,12.31,4.767,19.116,5.127c-0.269-1.289-0.405-2.564-0.405-3.823c0-4.587,1.619-8.501,4.858-11.74
		c3.238-3.238,7.199-4.857,11.876-4.857c4.679,0,8.68,1.754,12.011,5.262c3.745-0.719,7.256-2.053,10.524-4.002
		c-1.259,3.928-3.688,6.971-7.287,9.131c3.178-0.33,6.355-1.185,9.536-2.564c-2.31,3.359-5.082,6.223-8.32,8.592
		C82.212,34.847,82.23,35.566,82.23,36.526z"/>
</g>
</svg>
