<?xml version="1.0" encoding="utf-8"?>
<!-- Generator: Adobe Illustrator 16.0.3, SVG Export Plug-In . SVG Version: 6.00 Build 0)  -->
<!DOCTYPE svg PUBLIC "-//W3C//DTD SVG 1.1//EN" "http://www.w3.org/Graphics/SVG/1.1/DTD/svg11.dtd">
<svg version="1.1" id="Layer_1" xmlns="http://www.w3.org/2000/svg" xmlns:xlink="http://www.w3.org/1999/xlink" x="0px" y="0px"
	 width="19.4px" height="33.125px" viewBox="0 0 19.4 33.125" enable-background="new 0 0 19.4 33.125" xml:space="preserve">
<g id="KBJQ3g_1_">
	<g>
		<g>
			<g>
				<path fill="#FFD066" d="M5.369,22.477c-0.312-0.178-0.411-0.74-0.605-1.127c0.418-0.125,0.839-0.363,1.255-0.354
					c2.126,0.034,4.252,0.155,6.378,0.181c0.258,0.004,0.555-0.732,0.682-1.012c1.018-2.244,1.966-4.52,2.979-6.766
					c0.921-2.042,1.195-4.138,0.555-6.293c-0.972-3.254-4.521-5.392-8.119-4.813c-3.199,0.512-5.899,3.68-5.936,6.901
					c-0.04,3.385,1.717,6.001,3.004,8.829c0.212,0.468,1.256,0.681,1.944,0.771c0.973,0.128,1.973,0.032,2.984,0.032
					c0.199-3.162,0.384-6.104,0.569-9.035c-0.563,0.051-1.146,0.104-1.834,0.167c0.112,1.721,0.239,3.571,0.354,5.421
					c0.024,0.398,0.083,0.827-0.035,1.189c-0.071,0.224-0.433,0.438-0.693,0.484c-0.146,0.025-0.459-0.272-0.516-0.475
					c-0.145-0.539-0.213-1.102-0.27-1.66c-0.19-1.905-0.35-3.816-0.552-5.723c-0.104-0.957,0.319-1.481,1.2-1.12
					c1.03,0.422,1.925,0.332,2.928-0.01c0.778-0.267,1.124-0.002,1.033,0.998c-0.294,3.28-0.479,6.57-0.615,9.861
					c-0.04,0.973-0.304,1.4-1.314,1.32c-1.64-0.131-3.29-0.146-4.924-0.324C5.32,19.863,4.6,19.562,4.422,19.173
					c-1.066-2.33-2.315-4.644-2.927-7.105C0.168,6.714,2.551,2.203,7.967,0.979c5.512-1.246,10.354,2.978,10.385,8.057
					c0.017,2.857-1.054,5.258-2.296,7.685c-0.612,1.194-1.135,2.829-1.416,4.126c-0.297,1.352-1.117,1.682-2.238,1.754
					c-0.756,0.051-1.519,0.01-2.329,0.318"/>
				<path fill="#FFD066" d="M10.161,23.153l-0.178-0.467c0.679-0.259,1.315-0.285,1.932-0.311c0.157-0.007,0.313-0.014,0.47-0.023
					c1.045-0.067,1.746-0.352,2.011-1.559c0.251-1.158,0.761-2.866,1.438-4.187c1.157-2.26,2.285-4.707,2.269-7.569
					c-0.015-2.42-1.142-4.697-3.092-6.246c-1.962-1.559-4.51-2.13-6.988-1.569C5.576,1.776,3.686,3.036,2.556,4.867
					c-1.208,1.958-1.491,4.427-0.819,7.141c0.476,1.915,1.36,3.776,2.215,5.577c0.235,0.495,0.47,0.989,0.697,1.483
					c0.116,0.255,0.699,0.547,1.199,0.602c0.948,0.103,1.921,0.151,2.862,0.199c0.685,0.034,1.371,0.069,2.054,0.124
					c0.378,0.029,0.635-0.019,0.779-0.147c0.163-0.145,0.245-0.433,0.266-0.935c0.158-3.814,0.354-6.951,0.616-9.873
					c0.05-0.553-0.054-0.724-0.121-0.776c-0.092-0.074-0.3-0.06-0.582,0.037c-1.193,0.407-2.122,0.406-3.104,0.005
					C8.415,8.221,8.135,8.149,7.96,8.281c-0.173,0.13-0.245,0.453-0.198,0.885c0.117,1.102,0.219,2.204,0.322,3.306
					c0.075,0.807,0.15,1.613,0.23,2.419c0.051,0.5,0.117,1.079,0.263,1.62c0.026,0.093,0.202,0.271,0.277,0.293
					c0.163-0.037,0.42-0.213,0.452-0.313c0.085-0.26,0.061-0.588,0.037-0.906l-0.013-0.192c-0.077-1.249-0.16-2.497-0.24-3.707
					L8.96,9.73l2.367-0.216l-0.603,9.561H10.49c-0.302,0-0.604,0.009-0.903,0.018c-0.695,0.019-1.414,0.04-2.114-0.052
					c-1.217-0.161-1.937-0.469-2.139-0.916c-0.268-0.588-0.556-1.166-0.843-1.745c-1.089-2.188-2.215-4.452-2.183-7.19
					c0.038-3.345,2.852-6.617,6.146-7.145c3.699-0.592,7.385,1.597,8.398,4.989c0.62,2.084,0.43,4.26-0.566,6.467
					c-0.491,1.089-0.967,2.185-1.443,3.281c-0.506,1.165-1.012,2.33-1.536,3.486l-0.042,0.095c-0.258,0.582-0.501,1.063-0.864,1.063
					c-0.003,0-0.005,0-0.007,0c-1.115-0.014-2.231-0.053-3.347-0.093c-1.01-0.036-2.021-0.071-3.031-0.088
					c-0.228,0-0.495,0.093-0.767,0.198C5.198,21.462,5.149,21.48,5.1,21.499c0.021,0.052,0.041,0.104,0.06,0.158
					c0.092,0.246,0.196,0.524,0.332,0.602l-0.247,0.436c-0.294-0.168-0.426-0.521-0.553-0.862c-0.048-0.129-0.096-0.258-0.152-0.37
					l-0.134-0.267l0.286-0.085c0.125-0.038,0.251-0.086,0.376-0.134c0.306-0.118,0.647-0.229,0.956-0.231
					c1.012,0.017,2.025,0.053,3.039,0.088c1.112,0.04,2.224,0.079,3.336,0.093c0.051-0.04,0.2-0.3,0.406-0.766l0.045-0.1
					c0.523-1.153,1.028-2.316,1.533-3.478c0.477-1.098,0.953-2.196,1.446-3.288c0.958-2.124,1.135-4.125,0.543-6.119
					c-0.943-3.157-4.388-5.191-7.84-4.638c-3.068,0.492-5.69,3.54-5.725,6.657c-0.031,2.618,1.019,4.728,2.131,6.962
					c0.29,0.583,0.581,1.167,0.851,1.76c0.092,0.204,0.601,0.476,1.75,0.627c0.659,0.086,1.326,0.068,2.034,0.048
					c0.227-0.007,0.454-0.013,0.683-0.016l0.536-8.512l-1.301,0.119l0.097,1.469c0.08,1.21,0.163,2.459,0.24,3.709l0.013,0.186
					c0.027,0.366,0.055,0.744-0.06,1.096c-0.114,0.358-0.597,0.602-0.888,0.652c-0.317,0.049-0.721-0.369-0.8-0.653
					c-0.156-0.58-0.225-1.183-0.277-1.702c-0.081-0.807-0.156-1.615-0.231-2.423c-0.102-1.1-0.205-2.2-0.321-3.299
					C7.198,8.599,7.338,8.124,7.66,7.881c0.2-0.151,0.562-0.279,1.148-0.04c0.873,0.357,1.67,0.354,2.752-0.016
					c0.468-0.16,0.812-0.146,1.053,0.043c0.269,0.21,0.366,0.596,0.311,1.214c-0.261,2.913-0.456,6.042-0.614,9.849
					c-0.02,0.463-0.086,0.979-0.434,1.287c-0.256,0.228-0.619,0.315-1.15,0.271c-0.679-0.054-1.359-0.088-2.04-0.123
					c-0.948-0.048-1.929-0.097-2.891-0.202c-0.521-0.057-1.362-0.37-1.6-0.889c-0.226-0.493-0.459-0.985-0.693-1.479
					c-0.866-1.822-1.761-3.707-2.249-5.671C0.547,9.281,0.85,6.68,2.131,4.604c1.202-1.948,3.201-3.286,5.781-3.869
					C10.541,0.141,13.24,0.748,15.32,2.4c2.07,1.644,3.266,4.062,3.281,6.635c0.018,2.975-1.139,5.485-2.323,7.8
					c-0.655,1.277-1.15,2.938-1.395,4.065c-0.352,1.602-1.444,1.885-2.467,1.95c-0.159,0.011-0.32,0.018-0.481,0.024
					C11.333,22.9,10.763,22.924,10.161,23.153z"/>
			</g>
		</g>
	</g>
</g>
<g>
	<g>
		<path fill="#FFD066" d="M6.324,22.511c-0.333,0.97-1.403,0.605-0.465,0.787c0.342,0.066,0.678,0.165,1.012,0.261
			c1.029,0.295,2.047,0.627,3.068,0.947c0.935,0.293,3.396,1.485,4.089,0.227c0.743-1.35-1.438-3.01-2.225-1.58
			c0.461-0.836,1.341-0.324,0.476-0.557c-0.386-0.104-0.77-0.223-1.149-0.34c-1.022-0.312-2.043-0.645-3.066-0.955
			c-1.122-0.34-3.642-1.455-4.215,0.219C3.346,22.975,5.771,24.119,6.324,22.511L6.324,22.511z"/>
	</g>
</g>
<g>
	<g>
		<path fill="#FFD066" d="M4.92,25.671c0.243,0.343,0.79,0.451,1.164,0.567c0.876,0.271,1.763,0.514,2.646,0.757
			c0.937,0.258,1.875,0.507,2.816,0.741c0.455,0.113,1.024,0.334,1.505,0.264c1.226-0.184,0.642-2.05-0.467-1.885
			c0.32-0.049-0.015-0.025-0.144-0.053c-0.298-0.061-0.593-0.136-0.888-0.207c-0.785-0.192-1.565-0.403-2.347-0.616
			c-0.756-0.206-1.51-0.421-2.261-0.642c-0.234-0.068-0.467-0.143-0.7-0.217c-0.489-0.154-0.301-0.281-0.004,0.137
			C5.505,23.479,4.196,24.65,4.92,25.671L4.92,25.671z"/>
	</g>
</g>
<g>
	<g>
		<path fill="#FFD066" d="M5.521,25.863c1.314-0.146,2.63-0.326,3.941-0.508c0.909-0.123,3.172-0.051,3.8-0.879
			c0.507-0.67-0.678-1.574-1.215-0.861c0.211-0.279,0.233-0.186-0.058-0.123c-0.328,0.07-0.662,0.122-0.994,0.176
			c-0.815,0.132-1.639,0.243-2.46,0.354c-1.12,0.151-2.242,0.306-3.366,0.431C4.249,24.553,4.689,25.956,5.521,25.863L5.521,25.863z
			"/>
	</g>
</g>
<g>
	<g>
		<path fill="#FFD066" d="M5.388,28.486c0.554,0.777,2.521,0.957,3.346,1.184c1.07,0.295,2.661,1.045,3.796,0.877
			c1.225-0.183,0.64-2.049-0.467-1.885c0.318-0.047,0.048-0.018-0.092-0.044c-0.259-0.052-0.514-0.117-0.768-0.181
			c-0.667-0.164-1.33-0.342-1.992-0.522c-0.65-0.179-1.303-0.362-1.949-0.554C7.06,27.3,6.858,27.239,6.658,27.174
			c-0.462-0.146-0.233-0.242,0.054,0.158C5.972,26.296,4.662,27.467,5.388,28.486L5.388,28.486z"/>
	</g>
</g>
<g>
	<g>
		<path fill="#FFD066" d="M7.355,31.703c0.354,0.39,0.951,0.474,1.436,0.605c0.464,0.127,1.046,0.379,1.541,0.323
			c1.23-0.134,0.645-2.005-0.467-1.885c0.386-0.041,0.056-0.026-0.112-0.067c-0.263-0.063-0.279-0.072-0.48-0.128
			c-0.328-0.089-0.701-0.151-1.012-0.3c0.143,0.102,0.281,0.201,0.424,0.303c-0.001-0.003-0.002-0.004-0.004-0.006
			c-0.33-0.359-0.914-0.529-1.318-0.178C6.968,30.714,7.025,31.341,7.355,31.703L7.355,31.703z"/>
	</g>
</g>
<g>
	<g>
		<path fill="#FFD066" d="M6.021,28.671c1.137-0.124,2.271-0.282,3.401-0.438c0.823-0.111,2.772-0.049,3.337-0.797
			c0.509-0.67-0.675-1.571-1.213-0.86c0.197-0.263,0.277-0.201,0.012-0.146c-0.284,0.062-0.572,0.104-0.858,0.151
			c-0.706,0.114-1.415,0.21-2.124,0.308C7.609,27.02,6.64,27.152,5.67,27.258C4.749,27.359,5.189,28.762,6.021,28.671L6.021,28.671z
			"/>
	</g>
</g>
</svg>
