<?xml version="1.0" encoding="utf-8"?>
<!-- Generator: Adobe Illustrator 16.0.3, SVG Export Plug-In . SVG Version: 6.00 Build 0)  -->
<!DOCTYPE svg PUBLIC "-//W3C//DTD SVG 1.1//EN" "http://www.w3.org/Graphics/SVG/1.1/DTD/svg11.dtd">
<svg version="1.1" id="Layer_1" xmlns="http://www.w3.org/2000/svg" xmlns:xlink="http://www.w3.org/1999/xlink" x="0px" y="0px"
	 width="100px" height="100px" viewBox="0 0 100 100" enable-background="new 0 0 100 100" xml:space="preserve">
<g id="Captions">
</g>
<g id="Your_Icon">
	<path fill="#FFFFFF" d="M82.791,62.861L67.984,48.058l14.809-14.809c5.212-5.218,5.212-13.709,0-18.921
		c-2.527-2.537-5.895-3.929-9.473-3.929c-3.579,0-6.946,1.392-9.467,3.922L49.05,29.125L34.251,14.321
		c-2.527-2.524-5.889-3.916-9.462-3.916c-3.575,0-6.936,1.392-9.46,3.916c-2.538,2.53-3.934,5.9-3.93,9.485
		c0.002,3.582,1.403,6.94,3.922,9.454l14.791,14.797l-14.8,14.804c-5.204,5.211-5.204,13.703,0.011,18.932
		c2.53,2.523,5.891,3.918,9.466,3.918c3.579,0,6.94-1.395,9.468-3.923L49.05,66.992l14.813,14.812
		c2.529,2.525,5.887,3.91,9.457,3.91c3.572,0,6.931-1.385,9.473-3.923c2.527-2.528,3.92-5.894,3.92-9.466
		C86.713,68.749,85.316,65.385,82.791,62.861z"/>
</g>
</svg>
