<?xml version="1.0" encoding="utf-8"?>
<!-- Generator: Adobe Illustrator 16.0.3, SVG Export Plug-In . SVG Version: 6.00 Build 0)  -->
<!DOCTYPE svg PUBLIC "-//W3C//DTD SVG 1.1//EN" "http://www.w3.org/Graphics/SVG/1.1/DTD/svg11.dtd">
<svg version="1.1" id="Layer_1" xmlns="http://www.w3.org/2000/svg" xmlns:xlink="http://www.w3.org/1999/xlink" x="0px" y="0px"
	 width="100px" height="100px" viewBox="0 0 100 100" enable-background="new 0 0 100 100" xml:space="preserve">
<g id="Captions">
</g>
<g id="Layer_7" display="none">
</g>
<g id="Your_Icon" display="none">
	<path display="inline" d="M75.247,41.843c-0.715-6.531-5.452-13.034-13-17.843c-7.463-4.753-7.604-9.219-7.604-9.405v-0.577h-5.999
		V64.41c-2.51-1.512-5.615-2.416-8.995-2.416c-8.28,0-14.991,5.369-14.991,11.995c0,6.622,6.711,11.993,14.991,11.993
		c8.278,0,14.994-5.371,14.994-11.993V30.72c1.196,0.938,2.625,1.753,4.385,2.337c14.479,4.824,13.588,20.052,10.729,22.916
		C73.908,51.82,75.809,46.934,75.247,41.843z"/>
</g>
<g id="Layer_6" display="none">
	<path display="inline" d="M76.637,18.634c0-2.52-2.053-4.569-4.57-4.569H27.941c-2.521,0-4.574,2.05-4.574,4.569l-3.891,28.78h0.01
		V75.43h2.506v10.506h9.336V75.43h37.346v10.506h9.336V75.43h2.502V47.414h0.012L76.637,18.634z M41.25,17.337h17.508v5.123H41.25
		V17.337z M31.143,67.257c-3.217,0-5.832-2.61-5.832-5.833c0-3.226,2.615-5.835,5.832-5.835c3.23,0,5.84,2.609,5.84,5.835
		C36.982,64.646,34.373,67.257,31.143,67.257z M68.855,67.257c-3.224,0-5.832-2.61-5.832-5.833c0-3.226,2.608-5.835,5.832-5.835
		c3.223,0,5.836,2.609,5.836,5.835C74.691,64.646,72.078,67.257,68.855,67.257z M25.311,46.155l3.893-20.424h41.601l3.889,20.424
		H25.311z"/>
</g>
<g id="Layer_5" display="none">
	<g display="inline">
		<circle cx="24.512" cy="75.486" r="8.997"/>
		<path d="M15.519,39.506v11.992c18.186,0,32.983,14.797,32.983,32.984h11.994C60.496,59.682,40.314,39.506,15.519,39.506z"/>
		<path d="M15.519,15.518v11.994c31.413,0,56.967,25.556,56.967,56.97h11.996C84.48,46.456,53.546,15.518,15.519,15.518z"/>
	</g>
</g>
<g id="Layer_4">
	<polygon fill="#FFFFFF" points="56.914,33.953 65.789,42.894 80.459,28.087 88,35.856 87.992,12 80.537,12 64.141,12 
		71.602,19.337 	"/>
	<polygon fill="#FFFFFF" points="66,70 29,70 29,34 47.734,34 62.254,19 16,19 16,83 79,83 79,37.089 66,52.391 	"/>
</g>
</svg>
