<?xml version="1.0" encoding="utf-8"?>
<!-- Generator: Adobe Illustrator 16.0.3, SVG Export Plug-In . SVG Version: 6.00 Build 0)  -->
<!DOCTYPE svg PUBLIC "-//W3C//DTD SVG 1.1//EN" "http://www.w3.org/Graphics/SVG/1.1/DTD/svg11.dtd">
<svg version="1.1" id="Layer_1" xmlns="http://www.w3.org/2000/svg" xmlns:xlink="http://www.w3.org/1999/xlink" x="0px" y="0px"
	 width="100px" height="100px" viewBox="0 0 100 100" enable-background="new 0 0 100 100" xml:space="preserve">
<g id="Captions">
</g>
<g>
	<path fill="#FFFFFF" d="M93.062,53.373c0,7.668-1.058,13.63-3.17,17.886c-1.268,2.657-3.079,4.952-5.434,6.883
		c-4.137,3.411-9.102,5.645-14.897,6.702c-5.767,1.057-11.004,1.585-15.713,1.585c-12.075,0-20.905-0.831-26.489-2.491
		c-5.555-1.66-9.811-3.894-12.77-6.701c-5.102-4.77-7.652-12.467-7.652-23.094c0-8.18,2.339-15.003,7.019-20.467
		c-0.936-2.837-1.404-6.022-1.404-9.554c0-3.532,0.89-7.049,2.672-10.551c3.713,0,6.988,0.679,9.826,2.038
		c2.837,1.358,6.098,3.486,9.781,6.384c5.072-1.207,10.279-1.811,15.623-1.811c5.343,0,10.293,0.559,14.852,1.675
		c3.623-2.837,6.853-4.92,9.69-6.248c2.837-1.328,6.098-2.008,9.78-2.038c1.751,3.532,2.627,7.049,2.627,10.551
		s-0.469,6.642-1.404,9.418C90.708,39.095,93.062,45.706,93.062,53.373z M81.471,62.43c0-3.593-1.193-6.838-3.577-9.735
		c-2.386-2.898-5.615-4.348-9.69-4.348c-1.42,0.03-4.061,0.317-7.925,0.86c-3.864,0.544-7.29,0.815-10.278,0.815
		c-2.959,0-6.37-0.271-10.233-0.815c-3.865-0.543-6.521-0.83-7.97-0.86c-4.075,0-7.306,1.449-9.69,4.348
		c-2.385,2.897-3.578,6.143-3.578,9.735c0,6.4,2.067,11.185,6.204,14.354c4.136,3.17,11.109,4.755,20.92,4.755h8.694
		c9.751,0,16.845-1.676,21.282-5.026C79.523,73.523,81.471,68.83,81.471,62.43z M39.404,58.988c0.422,1.449,0.634,2.868,0.634,4.256
		c0,1.39-0.211,2.808-0.634,4.257c-0.423,1.449-1.163,2.762-2.219,3.939c-1.057,1.177-2.31,1.766-3.759,1.766
		c-1.449,0-2.702-0.589-3.758-1.766c-1.057-1.178-1.796-2.49-2.219-3.939c-0.423-1.449-0.634-2.867-0.634-4.257
		c0-1.388,0.211-2.807,0.634-4.256c0.422-1.449,1.162-2.747,2.219-3.895c1.057-1.177,2.31-1.766,3.758-1.766
		c1.449,0,2.702,0.589,3.759,1.766C38.242,56.241,38.981,57.539,39.404,58.988z M66.527,73.206c-1.449,0-2.687-0.589-3.713-1.766
		c-1.872-2.083-2.823-4.784-2.853-8.105c-0.03-3.351,0.92-6.098,2.853-8.241c1.057-1.177,2.31-1.766,3.759-1.766
		c1.479,0,2.731,0.589,3.758,1.766c1.932,2.174,2.883,4.921,2.853,8.241c0,3.321-0.966,6.022-2.897,8.105
		C69.229,72.617,67.977,73.206,66.527,73.206z"/>
</g>
</svg>
