<?xml version="1.0" encoding="utf-8"?>
<!-- Generator: Adobe Illustrator 16.0.3, SVG Export Plug-In . SVG Version: 6.00 Build 0)  -->
<!DOCTYPE svg PUBLIC "-//W3C//DTD SVG 1.1//EN" "http://www.w3.org/Graphics/SVG/1.1/DTD/svg11.dtd">
<svg version="1.1" id="Info-Icon" xmlns="http://www.w3.org/2000/svg" xmlns:xlink="http://www.w3.org/1999/xlink" x="0px" y="0px"
	 width="100px" height="100px" viewBox="0 0 100 100" enable-background="new 0 0 100 100" xml:space="preserve">
<path id="circle" fill="#FFFFFF" d="M50,5c24.812,0,45,20.187,45,45c0,24.812-20.188,45-45,45C25.187,95,5,74.812,5,50
	C5,25.187,25.187,5,50,5 M50,0C22.386,0,0,22.386,0,50s22.386,50,50,50c27.613,0,50-22.386,50-50S77.613,0,50,0L50,0z"/>
<circle id="dot" fill="#FFFFFF" cx="50" cy="29.546" r="4.934"/>
<rect id="i" x="46.5" y="41.21" fill="#FFFFFF" width="7" height="34.179"/>
</svg>
