<?xml version="1.0" encoding="utf-8"?>
<!-- Generator: Adobe Illustrator 16.0.3, SVG Export Plug-In . SVG Version: 6.00 Build 0)  -->
<!DOCTYPE svg PUBLIC "-//W3C//DTD SVG 1.1//EN" "http://www.w3.org/Graphics/SVG/1.1/DTD/svg11.dtd">
<svg version="1.1" id="Layer_1" xmlns="http://www.w3.org/2000/svg" xmlns:xlink="http://www.w3.org/1999/xlink" x="0px" y="0px"
	 width="100px" height="100px" viewBox="0 0 100 100" enable-background="new 0 0 100 100" xml:space="preserve">
<path id="eating" fill="#FFFFFF" d="M41.323,43.835c-1.333-1.188-2.057-3.579-1.606-5.311c0,0,1.792-6.917-1.979-10.692
	c-4.209-4.213-17.364-14.12-23.366-8.117c-6.008,6.004,3.898,19.16,8.114,23.369c3.771,3.774,10.691,1.976,10.691,1.976
	c1.726-0.451,4.116,0.27,5.308,1.606c0,0,29.878,33.439,31.683,35.24c2.432,2.432,5.835,2.971,7.6,1.205
	c1.766-1.769,1.227-5.168-1.205-7.6C74.766,73.717,41.323,43.835,41.323,43.835z M23.531,76.473
	c-2.435,2.436-2.97,5.834-1.205,7.601c1.769,1.768,5.165,1.229,7.6-1.203c0.975-0.976,10.143-11.181,18.366-20.364
	c-1.437-1.605-2.835-3.172-4.145-4.629C34.899,66.158,24.514,75.491,23.531,76.473z M61.609,47.622
	c1.188-1.333,3.58-2.057,5.308-1.606c0,0,5.396,0.267,9.168-3.503c2.324-2.325,10.978-11.798,13.429-16.572l-0.361-0.36
	c-5.709,5.714-15.213,14.523-15.641,14.095c-0.427-0.427,8.381-9.935,14.098-15.642l-0.715-0.713
	c-5.713,5.716-15.222,14.522-15.646,14.092c-0.425-0.429,8.381-9.933,14.095-15.646l-0.711-0.708
	c-5.714,5.711-15.222,14.52-15.647,14.092c-0.435-0.432,8.379-9.932,14.096-15.643l-0.714-0.713
	C76.658,24.511,67.15,33.32,66.725,32.892c-0.432-0.434,8.381-9.938,14.092-15.646l-0.354-0.359
	c-4.778,2.451-14.247,11.104-16.573,13.43c-3.779,3.776-3.502,9.167-3.502,9.167c0.45,1.73-0.277,4.119-1.607,5.311
	c0,0-2.316,2.071-5.754,5.146c1.158,1.038,2.377,2.129,3.621,3.245C59.616,49.853,61.609,47.622,61.609,47.622z"/>
</svg>
