<?xml version="1.0" encoding="utf-8"?>
<!-- Generator: Adobe Illustrator 16.0.3, SVG Export Plug-In . SVG Version: 6.00 Build 0)  -->
<!DOCTYPE svg PUBLIC "-//W3C//DTD SVG 1.1//EN" "http://www.w3.org/Graphics/SVG/1.1/DTD/svg11.dtd">
<svg version="1.1" id="Food_Icons" xmlns="http://www.w3.org/2000/svg" xmlns:xlink="http://www.w3.org/1999/xlink" x="0px" y="0px"
	 width="100px" height="100px" viewBox="0 0 100 100" enable-background="new 0 0 100 100" xml:space="preserve">
<path fill="#212221" d="M20.842,64.373c-5.2,0-9.411,4.212-9.411,9.408c0,5.199,4.211,9.408,9.411,9.408
	c5.197,0,9.411-4.209,9.411-9.408C30.253,68.585,26.039,64.373,20.842,64.373z M20.842,77.82c-2.229,0-4.037-1.809-4.037-4.039
	c0-2.229,1.808-4.037,4.037-4.037c2.231,0,4.04,1.808,4.04,4.037C24.882,76.014,23.073,77.82,20.842,77.82z"/>
<path fill="#212221" d="M79.043,64.373c-5.2,0-9.411,4.212-9.411,9.408c0,5.199,4.211,9.408,9.411,9.408
	c5.197,0,9.409-4.209,9.409-9.408C88.452,68.585,84.24,64.373,79.043,64.373z M79.043,77.82c-2.232,0-4.037-1.809-4.037-4.039
	c0-2.229,1.805-4.037,4.037-4.037c2.229,0,4.037,1.808,4.037,4.037C83.08,76.014,81.271,77.82,79.043,77.82z"/>
<path fill="#212221" d="M98.294,66H97V50.552l-14.547-8.286L74.016,18.55c0-0.98-0.906-1.55-1.888-1.55H4.761
	C3.782,17,3,17.344,3,18.323V66H1.77C0.787,66,0,66.997,0,67.977v4.029C0,72.986,0.787,74,1.77,74h2.991h3.874
	c0.208-8,5.585-11.836,12.207-11.836C27.466,62.164,32.843,66,33.051,74h33.784c0.208-8,5.583-11.836,12.208-11.836
	C85.662,62.164,91.042,66,91.25,74h3.867h2.999c0.979,0,1.776-0.904,1.776-1.885l0.178-4.188C100.07,66.95,99.271,66,98.294,66z
	 M36,22h7v6.389c0,1.768-1.46,3.201-3.497,3.201S36,30.156,36,28.389V22z M23,22h7v6.389c0,1.768-1.466,3.201-3.507,3.201
	c-2.03,0-3.493-1.434-3.493-3.201V22z M11,28.389V22h7v6.389c0,1.768-1.464,3.201-3.501,3.201C12.461,31.59,11,30.156,11,28.389z
	 M15,50V34.04L51.536,50H15z M56,28.389c0,1.768-1.967,3.201-4.003,3.201C49.96,31.59,48,30.156,48,28.389V22h8V28.389z M63,41V22
	h3.834c0.705,0,1.271,0.91,1.271,1.609L74.177,41H63z"/>
</svg>
