<?xml version="1.0" encoding="utf-8"?>
<!-- Generator: Adobe Illustrator 16.0.3, SVG Export Plug-In . SVG Version: 6.00 Build 0)  -->
<!DOCTYPE svg PUBLIC "-//W3C//DTD SVG 1.1//EN" "http://www.w3.org/Graphics/SVG/1.1/DTD/svg11.dtd">
<svg version="1.1" id="Layer_1" xmlns="http://www.w3.org/2000/svg" xmlns:xlink="http://www.w3.org/1999/xlink" x="0px" y="0px"
	 width="100px" height="100px" viewBox="0 0 100 100" enable-background="new 0 0 100 100" xml:space="preserve">
<g id="Captions">
</g>
<g id="Your_Icon">
	<g>
		<path fill="#FFFFFF" d="M91.473,78.791L75.877,63.193c4.236-6.103,6.729-13.512,6.729-21.49c0-20.844-16.963-37.799-37.806-37.799
			C23.956,3.904,7,20.859,7,41.703c0,20.849,16.956,37.803,37.8,37.803c5.744,0,11.188-1.29,16.069-3.593l16.742,16.744
			c1.805,1.799,4.214,2.79,6.777,2.79c2.627,0,5.105-1.032,6.979-2.901C95.188,88.725,95.234,82.55,91.473,78.791z M22.119,41.703
			c0-12.505,10.176-22.682,22.681-22.682c12.507,0,22.683,10.177,22.683,22.682c0,12.509-10.176,22.686-22.683,22.686
			C32.295,64.389,22.119,54.212,22.119,41.703z"/>
	</g>
</g>
</svg>
