<?xml version="1.0" encoding="utf-8"?>
<!-- Generator: Adobe Illustrator 16.0.3, SVG Export Plug-In . SVG Version: 6.00 Build 0)  -->
<!DOCTYPE svg PUBLIC "-//W3C//DTD SVG 1.1//EN" "http://www.w3.org/Graphics/SVG/1.1/DTD/svg11.dtd">
<svg version="1.1" id="Layer_1" xmlns="http://www.w3.org/2000/svg" xmlns:xlink="http://www.w3.org/1999/xlink" x="0px" y="0px"
	 width="40px" height="40px" viewBox="0 0 40 40" enable-background="new 0 0 40 40" xml:space="preserve">
<circle fill="#547EC0" cx="20" cy="19.826" r="17.05"/>
<g>
	<path fill="#FFFFFF" d="M13.219,23.143c-1.209,0-2.187,0.978-2.187,2.186c0,1.207,0.978,2.186,2.187,2.186
		c1.207,0,2.186-0.979,2.186-2.186C15.404,24.12,14.426,23.143,13.219,23.143z M13.219,26.267c-0.519,0-0.938-0.421-0.938-0.938
		s0.42-0.938,0.938-0.938c0.518,0,0.938,0.421,0.938,0.938C14.156,25.847,13.736,26.267,13.219,26.267z"/>
	<path fill="#FFFFFF" d="M26.739,23.143c-1.209,0-2.187,0.978-2.187,2.186c0,1.207,0.978,2.186,2.187,2.186
		c1.207,0,2.186-0.979,2.186-2.186C28.925,24.12,27.946,23.143,26.739,23.143z M26.739,26.267c-0.519,0-0.938-0.421-0.938-0.938
		s0.42-0.938,0.938-0.938c0.518,0,0.938,0.421,0.938,0.938C27.677,25.847,27.257,26.267,26.739,26.267z"/>
	<path fill="#FFFFFF" d="M31.211,23.52H30.91v-3.588l-3.379-1.925l-1.96-5.51c0-0.228-0.211-0.36-0.439-0.36H9.482
		c-0.228,0-0.409,0.08-0.409,0.308V23.52H8.788c-0.229,0-0.412,0.232-0.412,0.46v0.936c0,0.228,0.184,0.464,0.412,0.464h0.694h0.9
		c0.048-1.859,1.298-2.75,2.836-2.75s2.787,0.891,2.836,2.75h7.848c0.049-1.859,1.297-2.75,2.837-2.75
		c1.537,0,2.787,0.891,2.836,2.75h0.897h0.696c0.229,0,0.413-0.211,0.413-0.438l0.042-0.975
		C31.624,23.741,31.438,23.52,31.211,23.52z M16.739,13.299h1.626v1.484c0,0.41-0.339,0.743-0.812,0.743
		c-0.474,0-0.814-0.333-0.814-0.743V13.299z M13.72,13.299h1.626v1.484c0,0.41-0.34,0.743-0.814,0.743
		c-0.472,0-0.812-0.333-0.812-0.743V13.299z M10.932,14.783v-1.484h1.626v1.484c0,0.41-0.34,0.743-0.813,0.743
		C11.271,15.526,10.932,15.193,10.932,14.783z M11.861,19.804v-3.708l8.488,3.708H11.861z M21.386,14.783
		c0,0.41-0.457,0.743-0.93,0.743c-0.474,0-0.929-0.333-0.929-0.743v-1.484h1.858V14.783z M23.012,17.713v-4.414h0.891
		c0.164,0,0.296,0.212,0.296,0.373l1.41,4.041H23.012z"/>
</g>
</svg>
